<svg version="1.1" id="Layer_1" xmlns="http://www.w3.org/2000/svg" x="0" y="0" viewBox="0 0 28 28" xml:space="preserve"><style></style><path d="M23.2 4.9H4.8c-1.9 0-3.3 1.4-3.3 3.3v11.6c0 1.9 1.4 3.3 3.3 3.3h18.4c.9 0 1.8-.4 2.5-1.1.6-.6.9-1.5.8-2.2V8.2c0-1.9-1.5-3.3-3.3-3.3zm-18.4 2h18.4c.8 0 1.3.5 1.3 1.3v1.7h-21V8.2c0-.8.5-1.3 1.3-1.3zm19.4 13.8c-.3.3-.6.4-1 .4H4.8c-.8 0-1.3-.5-1.3-1.3v-7.9h21v8c0 .2-.1.5-.3.8z"/><path d="M16.8 17.8c-.6 0-1 .4-1 1v.3c0 .6.4 1 1 1s1-.4 1-1v-.3c0-.6-.5-1-1-1zM19.8 17.8c-.6 0-1 .4-1 1v.3c0 .6.4 1 1 1s1-.4 1-1v-.3c0-.6-.5-1-1-1zM22.8 17.8c-.6 0-1 .4-1 1v.3c0 .6.4 1 1 1s1-.4 1-1v-.3c0-.6-.5-1-1-1z"/></svg>